o Button
v -1.05 0 1.05
v 1.05 0 1.05
v 0.95 0 0.95
v -0.95 0 0.95
v 1.05 0 -1.05
v 0.95 0 -0.95
v -1.05 0 -1.05
v -0.95 0 -0.95
v -0.931581829404654 -0.0022788370481688 0.931581829404654
v -0.931581829404654 -0.0022788370481688 -0.931581829404654
v -0.913723285602804 -0.00904610688211373 0.913723285602804
v -0.913723285602804 -0.00904610688211373 -0.913723285602804
v -0.896966991411009 -0.0200961894323342 0.896966991411009
v -0.896966991411009 -0.0200961894323342 -0.896966991411009
v -0.881822078349193 -0.0350933335321533 0.881822078349193
v -0.881822078349193 -0.0350933335321533 -0.881822078349193
v -0.868748716937045 -0.0535818585470191 0.868748716937045
v -0.868748716937045 -0.0535818585470191 -0.868748716937045
v -0.858144134645631 -0.075 0.858144134645631
v -0.858144134645631 -0.075 -0.858144134645631
v -0.850330546341699 -0.0986969785011496 0.850330546341699
v -0.850330546341699 -0.0986969785011496 -0.850330546341699
v -0.845545363951997 -0.12395277334996 0.845545363951997
v -0.845545363951997 -0.12395277334996 -0.845545363951997
v -0.843933982822018 -0.15 0.843933982822018
v -0.843933982822018 -0.15 -0.843933982822018
v 0.931581829404654 -0.0022788370481688 0.931581829404654
v 0.913723285602804 -0.00904610688211373 0.913723285602804
v 0.896966991411009 -0.0200961894323342 0.896966991411009
v 0.881822078349193 -0.0350933335321533 0.881822078349193
v 0.868748716937045 -0.0535818585470191 0.868748716937045
v 0.858144134645631 -0.075 0.858144134645631
v 0.850330546341699 -0.0986969785011496 0.850330546341699
v 0.845545363951997 -0.12395277334996 0.845545363951997
v 0.843933982822018 -0.15 0.843933982822018
v 0.931581829404654 -0.0022788370481688 -0.931581829404654
v 0.913723285602804 -0.00904610688211373 -0.913723285602804
v 0.896966991411009 -0.0200961894323342 -0.896966991411009
v 0.881822078349193 -0.0350933335321533 -0.881822078349193
v 0.868748716937045 -0.0535818585470191 -0.868748716937045
v 0.858144134645631 -0.075 -0.858144134645631
v 0.850330546341699 -0.0986969785011496 -0.850330546341699
v 0.845545363951997 -0.12395277334996 -0.845545363951997
v 0.843933982822018 -0.15 -0.843933982822018
vt 0 1
vt 1 1
vt 0.835 0.835
vt 0.165 0.835
vt 1 0
vt 0.835 0.165
vt 0 0
vt 0.165 0.165
vn 0 1 0
vn 0.12279134661748 0.992432509138967 0
vn 0.12279134661748 0.992432509138967 0
vn 0.354349320006912 0.93511312653103 0
vn 0.354349320006912 0.935113126531031 0
vn 0.550527347484632 0.834817129478987 0
vn 0.550527347484632 0.834817129478987 0
vn 0.70363179282432 0.710564775461628 0
vn 0.703631792824319 0.710564775461628 0
vn 0.816496580927725 0.577350269189627 0
vn 0.816496580927725 0.577350269189627 0
vn 0.896169137511725 0.443712606279663 0
vn 0.896169137511725 0.443712606279663 0
vn 0.949705125314945 0.313145613014975 0
vn 0.982520050848697 0.186156787897388 0
vn 0.982520050848697 0.186156787897388 0
vn 0.998091908585106 0.0617457854184486 0
vn 0.998091908585106 0.0617457854184486 0
vn 0 0 0
vn 0 0.992432509138967 -0.12279134661748
vn 0 0.992432509138967 -0.12279134661748
vn 0 0.93511312653103 -0.354349320006912
vn 0 0.935113126531031 -0.354349320006912
vn 0 0.834817129478987 -0.550527347484632
vn 0 0.834817129478987 -0.550527347484632
vn 0 0.710564775461628 -0.70363179282432
vn 0 0.710564775461628 -0.703631792824319
vn 0 0.577350269189627 -0.816496580927725
vn 0 0.577350269189627 -0.816496580927725
vn 0 0.443712606279663 -0.896169137511725
vn 0 0.443712606279663 -0.896169137511725
vn 0 0.313145613014975 -0.949705125314945
vn 0 0.186156787897388 -0.982520050848697
vn 0 0.186156787897388 -0.982520050848697
vn 0 0.0617457854184486 -0.998091908585106
vn 0 0.0617457854184486 -0.998091908585106
vn -0.12279134661748 0.992432509138967 0
vn -0.12279134661748 0.992432509138967 0
vn -0.354349320006912 0.93511312653103 0
vn -0.354349320006912 0.935113126531031 0
vn -0.550527347484632 0.834817129478987 0
vn -0.550527347484632 0.834817129478987 0
vn -0.70363179282432 0.710564775461628 0
vn -0.703631792824319 0.710564775461628 0
vn -0.816496580927725 0.577350269189627 0
vn -0.816496580927725 0.577350269189627 0
vn -0.896169137511725 0.443712606279663 0
vn -0.896169137511725 0.443712606279663 0
vn -0.949705125314945 0.313145613014975 0
vn -0.982520050848697 0.186156787897388 0
vn -0.982520050848697 0.186156787897388 0
vn -0.998091908585106 0.0617457854184486 0
vn -0.998091908585106 0.0617457854184486 0
vn 0 0.992432509138967 0.12279134661748
vn 0 0.992432509138967 0.12279134661748
vn 0 0.93511312653103 0.354349320006912
vn 0 0.935113126531031 0.354349320006912
vn 0 0.834817129478987 0.550527347484632
vn 0 0.834817129478987 0.550527347484632
vn 0 0.710564775461628 0.70363179282432
vn 0 0.710564775461628 0.703631792824319
vn 0 0.577350269189627 0.816496580927725
vn 0 0.577350269189627 0.816496580927725
vn 0 0.443712606279663 0.896169137511725
vn 0 0.443712606279663 0.896169137511725
vn 0 0.313145613014975 0.949705125314945
vn 0 0.186156787897388 0.982520050848697
vn 0 0.186156787897388 0.982520050848697
vn 0 0.0617457854184486 0.998091908585106
vn 0 0.0617457854184486 0.998091908585106
g Button
f 1/1/1 2/2/1 3/3/1 4/4/1
f 2/2/1 5/5/1 6/6/1 3/3/1
f 5/5/1 7/7/1 8/8/1 6/6/1
f 7/7/1 1/1/1 4/4/1 8/8/1
f 8//2 4//2 9//3 10//3
f 10//4 9//4 11//5 12//5
f 12//6 11//6 13//7 14//7
f 14//8 13//8 15//9 16//9
f 16//10 15//10 17//11 18//11
f 18//12 17//12 19//13 20//13
f 20//14 19//14 21//14 22//14
f 22//15 21//15 23//16 24//16
f 24//17 23//17 25//18 26//18
f 26//19 25//19 25//19 26//19
f 4//20 3//20 27//21 9//21
f 9//22 27//22 28//23 11//23
f 11//24 28//24 29//25 13//25
f 13//26 29//26 30//27 15//27
f 15//28 30//28 31//29 17//29
f 17//30 31//30 32//31 19//31
f 19//32 32//32 33//32 21//32
f 21//33 33//33 34//34 23//34
f 23//35 34//35 35//36 25//36
f 25//19 35//19 35//19 25//19
f 3//37 6//37 36//38 27//38
f 27//39 36//39 37//40 28//40
f 28//41 37//41 38//42 29//42
f 29//43 38//43 39//44 30//44
f 30//45 39//45 40//46 31//46
f 31//47 40//47 41//48 32//48
f 32//49 41//49 42//49 33//49
f 33//50 42//50 43//51 34//51
f 34//52 43//52 44//53 35//53
f 35//19 44//19 44//19 35//19
f 6//54 8//54 10//55 36//55
f 36//56 10//56 12//57 37//57
f 37//58 12//58 14//59 38//59
f 38//60 14//60 16//61 39//61
f 39//62 16//62 18//63 40//63
f 40//64 18//64 20//65 41//65
f 41//66 20//66 22//66 42//66
f 42//67 22//67 24//68 43//68
f 43//69 24//69 26//70 44//70
f 44//19 26//19 26//19 44//19
#h 
